<svg width="30" height="30" viewBox="0 0 30 30" fill="none" xmlns="http://www.w3.org/2000/svg">
    <path d="M9.78125 16.25L15.9062 22.375C16.1562 22.625 16.276 22.9167 16.2656 23.25C16.2552 23.5833 16.125 23.875 15.875 24.125C15.625 24.3542 15.3333 24.474 15 24.4844C14.6667 24.4948 14.375 24.375 14.125 24.125L5.875 15.875C5.75 15.75 5.66146 15.6146 5.60938 15.4688C5.55729 15.3229 5.53125 15.1667 5.53125 15C5.53125 14.8333 5.55729 14.6771 5.60938 14.5312C5.66146 14.3854 5.75 14.25 5.875 14.125L14.125 5.875C14.3542 5.64583 14.6406 5.53125 14.9844 5.53125C15.3281 5.53125 15.625 5.64583 15.875 5.875C16.125 6.125 16.25 6.42188 16.25 6.76562C16.25 7.10938 16.125 7.40625 15.875 7.65625L9.78125 13.75H23.75C24.1042 13.75 24.401 13.8698 24.6406 14.1094C24.8802 14.349 25 14.6458 25 15C25 15.3542 24.8802 15.651 24.6406 15.8906C24.401 16.1302 24.1042 16.25 23.75 16.25H9.78125Z" fill="#1C1B1F"/>
</svg>
