<svg width="24" height="24" viewBox="0 0 24 24" fill="none" xmlns="http://www.w3.org/2000/svg">
    <path d="M6.15635 4.36997C5.66305 3.87668 4.86326 3.87668 4.36997 4.36997C3.87668 4.86326 3.87668 5.66305 4.36997 6.15635L10.2137 12.0001L4.37018 17.8437C3.87688 18.3369 3.87688 19.1367 4.37018 19.63C4.86347 20.1233 5.66326 20.1233 6.15655 19.63L12.0001 13.7865L17.8437 19.63C18.3369 20.1233 19.1367 20.1233 19.63 19.63C20.1233 19.1367 20.1233 18.3369 19.63 17.8437L13.7865 12.0001L19.6302 6.15635C20.1235 5.66305 20.1235 4.86326 19.6302 4.36997C19.1369 3.87668 18.3372 3.87668 17.8439 4.36997L12.0001 10.2137L6.15635 4.36997Z" fill="#626262"/>
</svg>
