<svg width="32" height="32" viewBox="0 0 32 32" fill="none" xmlns="http://www.w3.org/2000/svg">
<circle cx="16" cy="16" r="15" fill="white" stroke="#E90B0B" stroke-width="2"/>
<path d="M12.3381 11.1615C12.0131 10.8365 11.4862 10.8365 11.1612 11.1615C10.8362 11.4865 10.8362 12.0134 11.1612 12.3384L15.0112 16.1884L11.1614 20.0383C10.8364 20.3632 10.8364 20.8902 11.1614 21.2152C11.4864 21.5401 12.0133 21.5401 12.3383 21.2152L16.1881 17.3653L20.038 21.2152C20.363 21.5401 20.8899 21.5401 21.2149 21.2152C21.5399 20.8902 21.5399 20.3632 21.2149 20.0383L17.365 16.1884L21.215 12.3384C21.54 12.0134 21.54 11.4865 21.215 11.1615C20.8901 10.8365 20.3631 10.8365 20.0381 11.1615L16.1881 15.0115L12.3381 11.1615Z" fill="#E90B0B"/>
<path d="M21.215 11.1615C21.54 11.4865 21.54 12.0134 21.215 12.3384L17.365 16.1884L21.2149 20.0383C21.5399 20.3632 21.5399 20.8902 21.2149 21.2152C20.8899 21.5401 20.363 21.5401 20.038 21.2152L16.1881 17.3653L12.3383 21.2152C12.0133 21.5401 11.4864 21.5401 11.1614 21.2152C10.8364 20.8902 10.8364 20.3632 11.1614 20.0383L15.0112 16.1884L11.1612 12.3384C10.8362 12.0134 10.8362 11.4865 11.1612 11.1615C11.4862 10.8365 12.0131 10.8365 12.3381 11.1615L16.1881 15.0115L20.0381 11.1615C20.3631 10.8365 20.8901 10.8365 21.215 11.1615ZM21.215 11.1615L21.0196 11.357" stroke="#E90B0B" stroke-linecap="round" stroke-linejoin="round"/>
</svg>
